<?xml version="1.0" standalone="no"?>
<!DOCTYPE svg PUBLIC "-//W3C//DTD SVG 20010904//EN"
 "http://www.w3.org/TR/2001/REC-SVG-20010904/DTD/svg10.dtd">
<svg version="1.0" xmlns="http://www.w3.org/2000/svg"
 width="64.000000pt" height="64.000000pt" viewBox="0 0 64.000000 64.000000"
 preserveAspectRatio="xMidYMid meet">

<g transform="translate(0.000000,64.000000) scale(0.100000,-0.100000)"
fill="#000000" stroke="none">
<path d="M209 625 c-44 -14 -88 -49 -76 -61 3 -3 22 -1 43 6 65 22 178 8 272
-32 45 -20 82 -32 82 -27 0 16 -139 78 -189 84 -25 4 -55 10 -66 15 -34 15 83
12 177 -5 140 -24 134 -13 76 -137 -28 -60 -54 -108 -58 -108 -4 0 -10 24 -12
54 -16 196 -278 187 -278 -8 0 -40 -44 -167 -83 -241 -19 -35 -27 -65 -27
-101 l0 -51 164 -6 c90 -3 202 -3 250 0 l86 6 0 51 c0 46 -35 139 -60 156 -4
3 -10 17 -14 32 -5 22 8 57 64 169 39 78 69 147 67 154 -8 20 -174 56 -277 61
-66 3 -109 0 -141 -11z m38 -21 c-3 -3 -12 -4 -19 -1 -8 3 -5 6 6 6 11 1 17
-2 13 -5z m175 -471 c10 -9 18 -21 18 -26 0 -6 -10 -1 -22 10 -13 11 -30 23
-38 26 -11 4 -10 6 4 6 11 1 28 -6 38 -16z m-17 -33 c10 -11 22 -17 26 -14 5
3 9 -11 9 -30 0 -35 -1 -36 -39 -36 -24 0 -41 5 -44 14 -3 8 -16 16 -29 19
-21 4 -21 4 3 6 15 0 32 -6 39 -14 7 -8 17 -12 22 -9 13 8 -19 42 -46 47 -18
4 -17 4 5 6 15 0 32 -6 39 -14 7 -8 17 -12 22 -9 13 8 -19 42 -46 47 -21 4
-21 4 0 6 11 0 29 -8 39 -19z"/>
</g>
</svg>
